<svg width="1366" height="1366" viewBox="0 0 1366 1366" fill="none" xmlns="http://www.w3.org/2000/svg">
<rect width="1366" height="1366" fill="#1E1E1E"/>
<g clip-path="url(#clip0_0_1)">
<rect width="1365.33" height="1365.33" fill="white"/>
<path d="M0 682.667V1365.33H682.667H1365.33V682.667V-3.05176e-05H682.667H0V682.667ZM723.467 318.667C791.467 324 848 350.133 896.133 398.533C905.333 407.733 916.533 420.267 921.2 426.4C950.533 465.2 966.8 505.733 968.933 545.6C969.733 561.067 969.733 561.333 966.933 561.333C963.867 561.333 963.733 561.067 961.333 546.267C953.467 497.467 906 435.067 850.4 400.533C776.667 354.8 683.733 349.2 608.667 385.867C549.867 414.667 506.8 465.867 478.267 541.333C474.267 551.6 471.867 556.533 470.533 556.4C469.467 556.133 462.933 554.8 456 553.467C448.8 551.867 438 550.667 431.067 550.667C419.867 550.667 418.667 550.4 418.667 548.133C418.667 545.333 427.067 520.533 433.333 504.533C438.533 491.467 451.333 466 458.667 453.867C473.2 430.267 497.333 402.4 518.533 384.8C563.467 347.6 625.467 322.8 683.333 318.8C705.2 317.2 704.933 317.2 723.467 318.667ZM966.533 367.733C968.4 369.067 970.8 372.533 971.733 375.333C973.333 380 973.067 381.067 969.867 387.733C967.2 393.067 965.2 395.467 961.867 396.8C953.333 400.4 946 398.4 939.467 390.667C933.6 383.6 935.467 374.667 944.267 367.333C948.133 364 949.333 363.733 955.867 364.4C959.867 364.8 964.667 366.267 966.533 367.733ZM448 375.733C452.667 379.2 454.667 383.6 454.667 390.667C454.667 399.333 450.533 407.467 444.8 410.133C440.8 412.133 439.333 412.133 434 410.667C418.933 406.4 412.533 389.067 422.4 379.6C430.4 372 440.667 370.4 448 375.733ZM757.333 399.2C812.8 410.667 860.4 444.8 887.733 492.533C898 510.4 906.667 536.667 906.667 550.133C906.667 557.333 903.467 555.6 900.8 547.067C886.133 499.067 840.4 453.2 788 433.467C762.667 424 750.267 422 716.667 422.133C689.2 422.133 686.533 422.4 674.267 425.733C642.933 434.133 615.467 450.133 590.8 474.133L579.733 485.067L570.133 485.867C564.933 486.4 558.667 487.2 556.133 487.6L551.6 488.4L556 481.867C563.733 470.4 578.8 453.333 589.2 444.267C617.2 419.867 651.2 403.867 687.333 398C702.667 395.6 742.933 396.267 757.333 399.2ZM369.067 432.533C378.533 437.467 382 446.533 377.6 454.533C369.467 469.467 346.667 465.333 346.667 448.933C346.667 435.6 358.4 427.067 369.067 432.533ZM1055.2 449.867C1064.13 454 1071.6 461.467 1075.87 470.533C1078.67 476.533 1079.33 479.867 1079.2 488C1079.2 500 1076.13 507.733 1068 516.533C1059.6 525.733 1049.87 529.867 1036.67 529.867C1027.6 530 1024.8 529.467 1018.4 526.267C1009.07 521.733 999.733 511.6 996.8 503.067C995.6 499.6 994.667 492.667 994.667 487.467C994.667 456.8 1027.07 436.8 1055.2 449.867ZM778.667 467.333C780 468.933 780 469.733 778.667 471.333C775.333 475.333 768 472 769.867 467.333C770.8 464.8 776.533 464.8 778.667 467.333ZM822 477.333C823.067 480.933 821.867 482.667 818 482.667C814.8 482.667 812.4 478.667 814 476C815.467 473.6 821.067 474.533 822 477.333ZM356.267 498.933C366.933 503.867 376.133 512.933 380.8 523.067C386.133 534.667 386.133 549.2 381.067 560.267C376.533 570 366.8 579.733 356.667 584.8C349.333 588.267 347.467 588.667 334.667 588.667C322.133 588.667 319.867 588.267 312.667 584.933C284.8 572 276 538.133 294.4 514.133C300.267 506.4 309.867 499.467 318.533 496.667C328.4 493.467 346.8 494.667 356.267 498.933ZM736.933 512C776.4 513.467 813.067 516.4 822 518.8C831.467 521.333 836.667 524.933 846.933 535.867C857.467 546.933 876.267 571.067 887.6 588C896.133 600.533 900.133 605.2 900.933 603.067C902.667 598.267 912.4 585.2 916.667 581.867C923.067 577.067 936.133 575.867 946.267 579.2C955.733 582.4 964.133 591.2 965.467 599.6C966.4 605.6 966.133 606.267 962.267 610.4C955.6 617.333 945.733 620.4 929.2 620.533H915.2L919.867 625.733C922.8 628.8 929.867 633.467 937.467 637.333C952.133 644.8 957.2 649.867 963.067 662.667C976.133 691.6 980.4 740.133 973.867 786.8C971.733 802.933 963.6 836.933 960.8 842.4C958 847.733 953.333 851.6 946.667 854C939.2 856.667 857.2 860.4 847.067 858.533C832.133 855.733 822.667 851.6 814.267 844.267C804.933 836.133 798.4 832.8 787.067 830.667C781.6 829.6 748.4 829.333 676.667 829.6C558.533 830.133 566.533 829.2 550.533 842.667C542.8 849.067 538.933 851.333 530.267 854C514 859.2 504.667 859.867 467.2 858.533C418.933 856.8 412 855.467 405.733 846.267C402.267 841.2 394.267 810.4 391.333 790.667C386.8 760.533 387.467 716.133 392.667 688.133C394.933 676.133 401.6 662.267 410 651.733C414.8 645.733 418.4 642.933 427.067 638.533C440 632 446.667 627.333 446.667 624.533C446.667 623.6 447.467 622.667 448.533 622.667C449.6 622.667 450.8 622.133 451.2 621.467C451.6 620.933 445.733 620.4 438.267 620.533C423.333 620.667 413.067 618.267 405.2 612.933C400.8 610 400.667 609.733 401.067 601.867C401.733 591.733 405.333 586.933 416.133 581.467C422.667 578.267 426.133 577.333 432.4 577.333C446.4 577.333 453.733 582.667 462.8 599.067L466.4 605.733L474.933 594C496 564.8 515.333 539.2 521.067 533.067C533.067 520.267 541.867 517.333 576.667 514.667C631.333 510.533 676.4 509.733 736.933 512ZM1028.67 584.267C1038 591.6 1038.27 606.667 1029.2 611.467C1021.2 615.467 1011.47 611.867 1006.27 602.933C1003.73 598.667 1003.73 598.267 1006 592.533C1010 582.133 1020.93 578.133 1028.67 584.267ZM1112.8 603.333C1127.07 607.6 1135.2 618.667 1135.2 634C1135.2 645.2 1132.13 652 1124 658.933C1104.8 675.467 1074.67 663.733 1071.2 638.267C1069.6 626.667 1076.13 613.067 1086.4 607.067C1096.27 601.333 1102.8 600.4 1112.8 603.333ZM319.333 630.533C334.533 637.333 341.733 659.2 334.133 675.467C328.933 686.667 317.467 693.333 303.067 693.333C286.533 693.333 273.333 679.467 273.333 662.4C273.467 639.067 299.067 621.2 319.333 630.533ZM1044.13 671.733C1058.4 678.667 1069.33 693.733 1069.33 706.533C1069.33 718.667 1058.93 734.267 1046.4 740.8C1032.4 748.267 1009.07 737.867 1000.53 720.533C992 702.933 999.467 676.933 1015.33 669.733C1021.33 667.067 1036.67 668 1044.13 671.733ZM247.067 713.867C257.467 718.133 261.6 729.2 256.133 738.133C253.733 742.133 246.267 746.667 242.133 746.667C237.467 746.667 230.667 742.667 228 738.4C221.6 728.4 229.2 712.533 240.4 712.133C241.733 712 244.667 712.8 247.067 713.867ZM368 746.267C368 793.867 375.067 828 389.333 849.867C401.6 868.533 412.133 875.467 433.6 878.8C443.733 880.4 506.533 879.733 511.733 878C514.267 877.2 514.667 877.467 514.667 880.533C514.667 884.533 518.8 893.2 523.733 899.6C527.6 904.8 535.2 907.333 544 906.267L550.133 905.467L551.867 911.067C555.733 923.6 563.733 938.533 569.867 944.4C594.133 967.6 636.4 966.533 660.8 942.133C667.333 935.467 669.867 931.733 674 921.6L679.2 909.333L692 909.2C698.933 909.2 707.067 908.8 710 908.267L715.333 907.333L716.8 893.867C718.667 878.133 722.4 869.6 730.533 862.267C737.333 856.133 744.533 854 758.667 854C769.067 854 770.667 854.4 778.533 858.667C788 863.733 794.8 871.733 797.333 880.8C798.133 883.733 798.667 891.067 798.4 897.067L798 907.867L806.667 907.2C830.133 905.2 834 903.2 840.533 889.6L844.133 882L873.067 881.867C903.2 881.867 930.4 879.333 943.6 875.333C952.267 872.8 960.133 866.8 967.6 857.333C982.4 838.667 980.933 839.733 992.133 838.933C1015.2 837.467 1036.4 845.467 1052 861.2C1062.13 871.6 1068.13 882.933 1071.2 897.733C1073.73 910.133 1073.87 916.667 1071.47 928C1070.4 932.8 1069.73 936.8 1070 937.067C1070.8 938 1077.6 922.667 1079.33 915.867C1081.87 906.533 1081.87 889.6 1079.33 879.067C1071.07 843.867 1039.73 820.533 999.733 819.6C988.933 819.333 988.133 819.2 988.667 816.667C994.533 787.467 993.333 788.667 1015.87 788.667C1035.6 788.8 1047.73 791.6 1063.87 800C1100.53 819.2 1120.53 862.4 1112.8 905.333C1108.8 927.333 1100.8 942.8 1084.8 959.6C1067.87 977.467 1048.27 988.8 1022.8 995.733C1011.47 998.8 1007.47 999.067 988 999.067C969.6 999.067 964.267 998.667 955.333 996.267C933.333 990.267 911.333 976.4 896.4 959.067L889.333 950.933L876.4 950.4C865.733 950 861.867 949.2 855.067 946.133C847.2 942.533 837.733 934.133 833.867 927.333C832.533 924.933 832.133 925.2 829.333 930.667C824.267 940.8 800.267 970.533 784.667 986.133C761.067 1009.6 734.8 1025.33 707.467 1032.13C691.6 1036.13 659.467 1037.07 641.2 1034.13C596.4 1026.67 556.267 1001.33 532.133 965.333C527.733 958.667 523.067 950.4 521.867 946.933L519.733 940.667L506.667 953.6C482.267 977.867 455.467 991.867 420.667 998.667C404.8 1001.73 396.4 1002 380 1000C344.133 995.6 315.6 982.4 292.533 959.467C278.667 945.467 271.333 935.333 263.2 918.133C255.2 901.067 251.733 886.8 251.067 866.667C248.8 810.533 277.733 761.467 326 739.2C337.867 733.733 356.267 728.133 363.067 728.133L368 728V746.267ZM1116.27 740C1121.2 744.8 1121.6 745.867 1120.93 750.4C1119.73 757.467 1113.6 762.667 1106.53 762.667C1099.07 762.667 1092 755.867 1092 748.667C1092 741.733 1099.07 734.667 1106 734.667C1110 734.667 1112 735.733 1116.27 740ZM634.933 856.933C645.067 861.467 654.8 871.733 658 881.2C662.8 895.6 658 915.733 647.067 926.933C641.6 932.533 627.6 939.333 617.2 941.467C607.867 943.333 601.867 941.733 590.933 934.8C581.733 928.8 577.467 922.933 573.2 910.4C568.133 895.333 571.733 874.933 581.2 865.467C594 852.667 617.2 849.067 634.933 856.933ZM840.667 987.2C856.667 994 852.267 1020.27 834.267 1025.07C822 1028.4 811.733 1020 809.867 1005.07C808.133 991.067 825.733 980.933 840.667 987.2ZM518.667 995.333C522.667 997.467 526.667 1003.47 526.667 1007.33C526.667 1011.2 522.667 1017.2 518.667 1019.33C508.133 1024.8 497.467 1018.53 497.333 1006.93C497.333 995.867 508.133 989.867 518.667 995.333Z" fill="black"/>
<path d="M612.667 540.8C609.067 541.067 592.267 541.867 575.333 542.667C558.533 543.467 541.733 544.8 538.133 545.6C529.6 547.467 523.6 553.6 516.133 568C513.067 574.267 506.533 586.133 501.733 594.4C495.467 605.2 493.2 610.267 493.867 612.4C495.333 618.4 505.2 618.667 686.933 618.667C858 618.667 872.133 618.267 874 613.733C874.267 612.667 873.2 608.267 871.333 603.867C866.4 591.733 843.867 554.667 839.333 551.333C832.667 546.4 824.133 544 808 542.533C793.6 541.333 627.067 539.733 612.667 540.8Z" fill="black"/>
<path d="M525.333 656.8C525.333 657.6 527.733 663.467 530.667 669.733C533.6 676 536 681.733 536 682.4C536 683.2 536.667 684.267 537.6 684.8C540 686.267 537.733 675.333 534.133 668.267C530.533 661.2 525.467 654.533 525.333 656.8Z" fill="black"/>
<path d="M834.933 662.667C828.533 672.533 824.133 686.8 827.733 686.667C828.533 686.667 837.867 666.533 840.8 658.267C842.4 653.733 839.2 656.133 834.933 662.667Z" fill="black"/>
<path d="M418.667 671.333C417.2 673.067 417.333 675.867 419.067 686.533C423.2 712 430 723.067 444 727.2C448 728.4 465.467 732.4 482.667 736.133C499.867 739.733 518.4 744 523.867 745.467C529.2 746.933 534 747.867 534.267 747.467C534.667 747.067 532.267 741.867 528.933 735.733C525.733 729.6 521.733 720.667 520.133 715.733C516.533 704.8 511.2 699.2 498.133 692.8C485.467 686.667 452.4 673.867 442.667 671.333C432.4 668.667 420.8 668.667 418.667 671.333Z" fill="black"/>
<path d="M920.667 671.333C911.867 673.733 868.933 691.333 862 695.333C853.067 700.533 848.4 706.533 845.333 716.667C842.133 727.067 839.2 734 834 742.267C832.133 745.467 831.067 748 831.6 748C832.267 748 836.933 746.8 842 745.333C847.2 743.867 860.667 740.8 872 738.533C901.2 732.8 919.733 728.267 926.133 725.467C935.6 721.2 940.4 712.933 945.333 692C949.067 676.267 948.933 672.267 944.533 670.667C939.867 668.8 928.667 669.2 920.667 671.333Z" fill="black"/>
<path d="M542 709.467C537.333 714.667 537.067 715.333 537.6 722.533C538 727.6 540.267 734.667 544.533 744.667C548 752.667 553.333 765.067 556.133 772C562.667 787.467 572.667 798.8 582.667 801.867C597.2 806.4 707.333 808.267 755.333 804.667C779.6 802.933 787.067 801.6 792.4 798C797.733 794.4 804.533 784.667 808.667 774.933C810.933 769.333 816.667 756.133 821.2 745.6C831.467 721.733 831.733 717.067 822.933 707.6L819.467 704H683.2H546.933L542 709.467ZM802.4 735.867C805.467 736.133 804 738.4 799.733 739.867C791.467 742.8 708.267 745.6 656 744.8C595.6 743.867 570.133 742.267 565.467 739.067L562 736.667L566.667 736C570.4 735.333 796.667 735.2 802.4 735.867ZM789.733 769.733C787.467 773.333 780 774.533 743.333 776.667C675.067 780.8 574.667 776.667 574.667 769.6C574.667 769.067 623.2 768.667 682.533 768.667C741.867 768.667 790.133 769.067 789.733 769.733Z" fill="black"/>
<path d="M434 770.533C427.733 774.4 424.267 778.8 420.4 788.133C417.333 795.333 416.8 798.667 416.667 808.933C416.667 823.467 418.933 827.867 427.467 829.733C430.267 830.4 452.8 830.667 477.333 830.267C526 829.733 530.133 829.067 536 821.6C541.067 815.2 538.4 808.533 525.467 796C510.133 781.2 491.867 773.467 463.733 770C442.667 767.467 438.8 767.467 434 770.533Z" fill="black"/>
<path d="M899.333 770.133C875.6 773.333 858.4 780.267 843.067 792.8C828 805.067 823.333 816.4 830.533 823.2C832.533 825.2 836.267 827.333 838.8 828.267C846 830.533 932.533 831.333 939.333 829.067C947.333 826.4 949.6 821.067 948.933 806.667C948.4 792.267 942.933 780 934.133 772.667C928.933 768.4 927.6 768 920.533 768.133C916.267 768.267 906.667 769.067 899.333 770.133Z" fill="black"/>
</g>
<defs>
<clipPath id="clip0_0_1">
<rect width="1365.33" height="1365.33" fill="white"/>
</clipPath>
</defs>
</svg>
